<svg width="96" height="96" viewBox="0 0 96 96" fill="none" xmlns="http://www.w3.org/2000/svg">
  <defs>
    <linearGradient id="tile" x1="14" y1="10" x2="84" y2="86" gradientUnits="userSpaceOnUse">
      <stop offset="0" stop-color="#0F172A"/>
      <stop offset="0.5" stop-color="#1D4ED8"/>
      <stop offset="1" stop-color="#22D3EE"/>
    </linearGradient>
    <linearGradient id="streamA" x1="8" y1="32" x2="72" y2="32" gradientUnits="userSpaceOnUse">
      <stop offset="0" stop-color="#FFFFFF"/>
      <stop offset="1" stop-color="#C4F1FF"/>
    </linearGradient>
    <linearGradient id="streamB" x1="18" y1="62" x2="74" y2="62" gradientUnits="userSpaceOnUse">
      <stop offset="0" stop-color="#7DD3FC"/>
      <stop offset="1" stop-color="#FFFFFF"/>
    </linearGradient>
    <linearGradient id="accent" x1="48" y1="20" x2="72" y2="74" gradientUnits="userSpaceOnUse">
      <stop offset="0" stop-color="#F8FAFC"/>
      <stop offset="1" stop-color="#BFDBFE"/>
    </linearGradient>
  </defs>
  <rect x="6" y="6" width="84" height="84" rx="26" fill="url(#tile)"/>
  <path d="M22 28C30.6 28 35.4 28 40 30.8C44.9 33.8 48.2 39.5 51.1 46.7L54.3 54.5C56.6 60 59.2 64 63.6 66.2C67.3 68 71.4 68 77 68" stroke="url(#streamA)" stroke-width="10" stroke-linecap="round"/>
  <path d="M21 67H34.8C40.3 67 44.4 65.5 47.6 62.4C51 59.1 53.8 54.6 56.7 49.2C59.1 44.7 61.2 41.5 63.8 39C67.1 35.9 71.1 34 77 34" stroke="url(#streamB)" stroke-width="10" stroke-linecap="round"/>
  <path d="M58 21L76 39M76 57L58 75" stroke="url(#accent)" stroke-width="8" stroke-linecap="round"/>
  <circle cx="22" cy="28" r="4" fill="#DBEAFE"/>
  <circle cx="21" cy="67" r="4" fill="#67E8F9"/>
</svg>
